<?xml version="1.0" encoding="UTF-8" standalone="no"?>
<!-- Created with Inkscape (http://www.inkscape.org/) -->

<svg
   xmlns:dc="http://purl.org/dc/elements/1.1/"
   xmlns:cc="http://creativecommons.org/ns#"
   xmlns:rdf="http://www.w3.org/1999/02/22-rdf-syntax-ns#"
   xmlns:svg="http://www.w3.org/2000/svg"
   xmlns="http://www.w3.org/2000/svg"
   xmlns:sodipodi="http://sodipodi.sourceforge.net/DTD/sodipodi-0.dtd"
   xmlns:inkscape="http://www.inkscape.org/namespaces/inkscape"
   width="1200"
   height="1200"
   viewBox="0 0 1200 1200"
   id="svg2"
   version="1.1"
   inkscape:version="0.91 r13725"
   sodipodi:docname="cafficon.svg"
   inkscape:export-filename="/Users/walkingmask/Developments/WiFiToggler/res/icons/cafficon.png"
   inkscape:export-xdpi="90"
   inkscape:export-ydpi="90">
  <defs
     id="defs4" />
  <sodipodi:namedview
     id="base"
     pagecolor="#ffffff"
     bordercolor="#666666"
     borderopacity="1.0"
     inkscape:pageopacity="0.0"
     inkscape:pageshadow="2"
     inkscape:zoom="0.45833333"
     inkscape:cx="446.71041"
     inkscape:cy="611.90912"
     inkscape:document-units="px"
     inkscape:current-layer="layer5"
     showgrid="false"
     units="px"
     inkscape:window-width="1280"
     inkscape:window-height="751"
     inkscape:window-x="0"
     inkscape:window-y="1"
     inkscape:window-maximized="1" />
  <metadata
     id="metadata7">
    <rdf:RDF>
      <cc:Work
         rdf:about="">
        <dc:format>image/svg+xml</dc:format>
        <dc:type
           rdf:resource="http://purl.org/dc/dcmitype/StillImage" />
        <dc:title />
      </cc:Work>
    </rdf:RDF>
  </metadata>
  <g
     inkscape:label="Layer 1"
     inkscape:groupmode="layer"
     id="layer1"
     transform="translate(0,147.63784)"
     style="display:none">
    <text
       xml:space="preserve"
       style="font-style:normal;font-variant:normal;font-weight:normal;font-stretch:normal;font-size:40px;line-height:125%;font-family:Superclarendon;-inkscape-font-specification:Superclarendon;letter-spacing:0px;word-spacing:0px;fill:#000000;fill-opacity:1;stroke:none;stroke-width:1px;stroke-linecap:butt;stroke-linejoin:miter;stroke-opacity:1"
       x="-113.45455"
       y="581.08948"
       id="text3338"
       sodipodi:linespacing="125%"><tspan
         sodipodi:role="line"
         id="tspan3340"
         x="-113.45455"
         y="581.08948" /></text>
    <rect
       style="fill:#ffaaaa;stroke:#ffaaaa;stroke-width:2.66651607"
       id="rect3344"
       width="1197.3335"
       height="1197.3335"
       x="1.333258"
       y="-146.30452" />
  </g>
  <g
     inkscape:groupmode="layer"
     id="layer2"
     inkscape:label="Layer 2"
     style="display:inline">
    <ellipse
       style="fill:none;fill-rule:evenodd;stroke:#000000;stroke-width:48.0414505;stroke-linecap:butt;stroke-linejoin:miter;stroke-miterlimit:4;stroke-dasharray:none;stroke-opacity:1"
       id="path3336"
       cx="600.00006"
       cy="600"
       rx="575.97931"
       ry="575.97925" />
  </g>
  <g
     inkscape:groupmode="layer"
     id="layer3"
     inkscape:label="Layer 3"
     style="display:none">
    <text
       xml:space="preserve"
       style="font-style:normal;font-variant:normal;font-weight:bold;font-stretch:normal;font-size:1069.72436523px;line-height:125%;font-family:STIXGeneral;-inkscape-font-specification:'STIXGeneral Bold';letter-spacing:0px;word-spacing:0px;fill:#0000ff;fill-opacity:1;stroke:#0000ff;stroke-width:1px;stroke-linecap:butt;stroke-linejoin:miter;stroke-opacity:1"
       x="240.64685"
       y="964.17822"
       id="text3347"
       sodipodi:linespacing="125%"
       transform="scale(1.0043523,0.99566656)"><tspan
         sodipodi:role="line"
         id="tspan3349"
         x="240.64685"
         y="964.17822">T</tspan></text>
  </g>
  <g
     inkscape:groupmode="layer"
     id="layer4"
     inkscape:label="Layer 4"
     style="display:none">
    <circle
       style="fill:none;stroke:#000000;stroke-width:1.20243621"
       id="path3352"
       cx="600"
       cy="600"
       r="599.3988" />
    <path
       style="fill:none;stroke:#000000;stroke-width:2.18181825"
       d="M 559.21514,1196.8036 C 368.01742,1182.9966 196.61235,1080.7295 94.354545,919.44937 49.270545,848.34326 19.889821,767.52524 6.8358244,678.71023 0.99808582,638.99222 1.5230088,555.9779 7.8705432,515.07387 21.848437,424.99919 51.983527,345.27066 99.408308,272.89205 197.35528,123.40764 351.62372,28.206808 533.01818,5.3063989 568.71947,0.79923721 644.95486,1.9586389 682.47273,7.5793309 819.22898,28.067303 937.7738,88.436674 1030.5031,184.81504 c 87.1604,90.59029 140.5816,199.18599 161.5801,328.46302 5.4064,33.28444 6.6043,114.70241 2.2415,152.34126 -13.3387,115.07488 -57.4223,221.12195 -129.2443,310.90909 -19.0504,23.81549 -64.2467,69.01189 -88.06222,88.06219 -43.77731,35.0181 -101.03352,68.789 -151.63636,89.4382 -81.54775,33.2767 -179.56451,49.0287 -266.16668,42.7748 z m 234.53031,-249.57273 0,-14.02483 L 781.2,931.83099 c -68.32549,-7.4889 -82.20502,-15.35658 -89.73118,-50.86451 -1.74425,-8.22927 -2.45064,-97.06091 -2.45064,-308.18182 l 0,-296.61988 11.51178,0 c 33.68629,0 72.7628,8.8863 101.68008,23.12282 45.86317,22.57931 72.48554,62.92477 86.24066,130.69536 l 4.87119,24 16.21178,0 16.21178,0 -0.1213,-7.09091 c -0.0668,-3.9 -0.31211,-52.25454 -0.54546,-107.45454 l -0.42414,-100.36364 -324,0 -324,0 -0.004,34.36364 c -0.002,18.9 -0.65173,67.5 -1.44401,108 l -1.44048,73.63636 16.4395,0 16.43952,0 3.60213,-19.68901 c 12.42978,-67.93997 41.31448,-113.51354 86.37472,-136.28001 24.1316,-12.19237 71.80197,-22.89875 102.08382,-22.9272 l 13.68897,-0.0129 -0.59762,302.72727 c -0.56263,285.00829 -0.82628,303.30194 -4.50448,312.54546 -4.51542,11.34757 -8.75384,16.83196 -17.91043,23.17564 -12.22067,8.46648 -25.13771,11.56536 -72.54546,17.40423 l -9.27272,1.14205 0,12.59359 c 0,6.92646 0.65454,13.24813 1.45455,14.04811 0.79998,0.80001 87.69089,1.45456 193.09091,1.45456 l 191.63635,0 0,-14.02482 z"
       id="path3360"
       inkscape:connector-curvature="0" />
  </g>
  <g
     inkscape:groupmode="layer"
     id="layer5"
     inkscape:label="Layer 5"
     style="display:inline">
    <text
       xml:space="preserve"
       style="font-style:normal;font-variant:normal;font-weight:bold;font-stretch:normal;font-size:40.65775681px;line-height:125%;font-family:STIXGeneral;-inkscape-font-specification:'STIXGeneral Bold';letter-spacing:0px;word-spacing:0px;fill:#000000;fill-opacity:1;stroke:none;stroke-width:1px;stroke-linecap:butt;stroke-linejoin:miter;stroke-opacity:1"
       x="224.55591"
       y="942.92108"
       id="text4145"
       sodipodi:linespacing="125%"
       transform="scale(1.0023266,0.99767879)"><tspan
         sodipodi:role="line"
         id="tspan4147"
         x="224.55591"
         y="942.92108"
         style="font-style:normal;font-variant:normal;font-weight:bold;font-stretch:normal;font-size:1016.44390869px;font-family:STIXGeneral;-inkscape-font-specification:'STIXGeneral Bold'">C</tspan></text>
  </g>
</svg>
