<?xml version="1.0" encoding="UTF-8" standalone="no"?>
<!-- Created with Inkscape (http://www.inkscape.org/) -->

<svg
   xmlns:dc="http://purl.org/dc/elements/1.1/"
   xmlns:cc="http://creativecommons.org/ns#"
   xmlns:rdf="http://www.w3.org/1999/02/22-rdf-syntax-ns#"
   xmlns:svg="http://www.w3.org/2000/svg"
   xmlns="http://www.w3.org/2000/svg"
   xmlns:sodipodi="http://sodipodi.sourceforge.net/DTD/sodipodi-0.dtd"
   xmlns:inkscape="http://www.inkscape.org/namespaces/inkscape"
   width="1200"
   height="1200"
   viewBox="0 0 1200 1200"
   id="svg2"
   version="1.1"
   inkscape:version="0.91 r13725"
   sodipodi:docname="iconwhite.svg"
   inkscape:export-filename="/Users/walkingmask/Developments/WiFiToggler/iconblack.png"
   inkscape:export-xdpi="90"
   inkscape:export-ydpi="90">
  <defs
     id="defs4" />
  <sodipodi:namedview
     id="base"
     pagecolor="#ffffff"
     bordercolor="#666666"
     borderopacity="1.0"
     inkscape:pageopacity="0.0"
     inkscape:pageshadow="2"
     inkscape:zoom="0.4575"
     inkscape:cx="600"
     inkscape:cy="600"
     inkscape:document-units="px"
     inkscape:current-layer="layer4"
     showgrid="false"
     units="px"
     inkscape:window-width="1280"
     inkscape:window-height="751"
     inkscape:window-x="0"
     inkscape:window-y="1"
     inkscape:window-maximized="1" />
  <metadata
     id="metadata7">
    <rdf:RDF>
      <cc:Work
         rdf:about="">
        <dc:format>image/svg+xml</dc:format>
        <dc:type
           rdf:resource="http://purl.org/dc/dcmitype/StillImage" />
        <dc:title />
      </cc:Work>
    </rdf:RDF>
  </metadata>
  <g
     inkscape:label="Layer 1"
     inkscape:groupmode="layer"
     id="layer1"
     transform="translate(0,147.63784)"
     style="display:inline">
    <text
       xml:space="preserve"
       style="font-style:normal;font-weight:normal;font-size:40px;line-height:125%;font-family:sans-serif;letter-spacing:0px;word-spacing:0px;fill:#000000;fill-opacity:1;stroke:none;stroke-width:1px;stroke-linecap:butt;stroke-linejoin:miter;stroke-opacity:1"
       x="-113.45455"
       y="581.08948"
       id="text3338"
       sodipodi:linespacing="125%"><tspan
         sodipodi:role="line"
         id="tspan3340"
         x="-113.45455"
         y="581.08948" /></text>
    <rect
       style="fill:#ffaaaa;stroke:#ffaaaa;stroke-width:2.66651607"
       id="rect3344"
       width="1197.3335"
       height="1197.3335"
       x="1.333258"
       y="-146.30452" />
  </g>
  <g
     inkscape:groupmode="layer"
     id="layer2"
     inkscape:label="Layer 2"
     style="display:none">
    <circle
       transform="translate(0,147.63784)"
       style="fill:#ffffff;fill-rule:evenodd;stroke:#ffffff;stroke-width:1.07852423px;stroke-linecap:butt;stroke-linejoin:miter;stroke-opacity:1"
       id="path3336"
       cx="600"
       cy="452.36215"
       r="599.46075" />
  </g>
  <g
     inkscape:groupmode="layer"
     id="layer3"
     inkscape:label="Layer 3"
     style="display:none">
    <text
       xml:space="preserve"
       style="font-style:normal;font-variant:normal;font-weight:bold;font-stretch:normal;font-size:1069.72436523px;line-height:125%;font-family:STIXGeneral;-inkscape-font-specification:'STIXGeneral Bold';letter-spacing:0px;word-spacing:0px;fill:#0000ff;fill-opacity:1;stroke:#0000ff;stroke-width:1px;stroke-linecap:butt;stroke-linejoin:miter;stroke-opacity:1"
       x="240.64685"
       y="964.17822"
       id="text3347"
       sodipodi:linespacing="125%"
       transform="scale(1.0043523,0.99566656)"><tspan
         sodipodi:role="line"
         id="tspan3349"
         x="240.64685"
         y="964.17822">T</tspan></text>
  </g>
  <g
     inkscape:groupmode="layer"
     id="layer4"
     inkscape:label="Layer 4"
     style="display:inline">
    <circle
       style="fill:none;stroke:#ffffff;stroke-width:1.71052563"
       id="path4147"
       cx="600"
       cy="600"
       r="599.14471" />
    <path
       style="fill:#ffffff;stroke:#ffffff;stroke-width:2.18579245"
       d="m 555.84699,1196.5344 c -4.20765,-0.4873 -16.99453,-1.9555 -28.4153,-3.2627 C 388.23196,1177.3399 247.85303,1104.2182 155.14928,999.35412 54.811342,885.85447 2.8415301,749.58852 2.8415301,600 2.8415301,371.97023 128.85919,167.85505 332.81923,65.523661 392.83191,35.413932 455.75097,16.245625 527.43169,6.2349235 558.63954,1.8765338 646.42341,2.4962721 679.34426,7.3073991 878.85893,36.464918 1043.3635,153.42501 1133.2889,330.05464 c 42.8766,84.21732 63.7508,172.60665 63.7508,269.94536 0,96.54695 -19.5652,180.59231 -61.8237,265.57377 -87.9077,176.78163 -252.07399,296.02403 -448.68321,325.90173 -27.69714,4.209 -110.38748,7.41 -130.6858,5.0589 z m 238.25137,-249.61735 0,-14.83159 -25.68306,-2.50177 c -46.59974,-4.53923 -65.02831,-13.75641 -74.04249,-37.03283 -3.92654,-10.13908 -4.12385,-23.33259 -4.69753,-314.09442 l -0.59882,-303.5108 18.08472,1.45003 c 63.18452,5.06614 101.20689,19.56142 131.82673,50.2564 14.21592,14.25077 19.54389,21.59796 27.92936,38.51398 9.46828,19.10035 19.92417,53.9331 24.39875,81.28204 l 1.34109,8.19672 16.84084,7.6e-4 16.84085,7.5e-4 -1.0929,-107.65102 -1.09289,-107.65104 -322.28783,-0.5537 c -177.25829,-0.30455 -322.9602,0.18732 -323.78199,1.09289 -0.82181,0.90562 -2.17718,49.64011 -3.01193,108.29887 l -1.51773,106.65226 16.8544,-0.64133 16.85443,-0.64134 4.9089,-24.04371 c 19.99536,-97.9367 68.47648,-141.68792 168.09908,-151.69898 13.13228,-1.31967 25.67327,-2.39938 27.86885,-2.39938 3.84573,0 3.99036,10.70859 3.94866,292.34972 -0.0267,179.62228 -0.87126,298.07596 -2.19056,307.20024 -5.28861,36.5762 -21.71757,48.14232 -77.54756,54.59404 l -24.04372,2.77849 -0.64632,14.70815 -0.64631,14.70815 193.54249,0 193.54249,0 0,-14.83158 z"
       id="path4151"
       inkscape:connector-curvature="0" />
  </g>
</svg>
